<?xml version="1.0" standalone="no"?><!DOCTYPE svg PUBLIC "-//W3C//DTD SVG 1.1//EN" "http://www.w3.org/Graphics/SVG/1.1/DTD/svg11.dtd" ><svg xmlns="http://www.w3.org/2000/svg"><metadata></metadata><defs><font id="instaplus" horiz-adv-x="1673"><font-face font-family="instaplus" font-weight="400" font-stretch="normal" units-per-em="1000" panose-1="2 0 5 3 0 0 0 0 0 0" ascent="850" descent="-150" x-height="0" bbox="-45 -151 1673 850" underline-thickness="0" underline-position="10" unicode-range="U+e800-f16f" /><missing-glyph horiz-adv-x="580" d="M564 422 l-234 -224 q-18 -18 -40 -18 q-22 0 -40 18 l-234 224 q-16 16 -16 41 q0 25 16 41 q38 38 78 0 l196 -188 l196 188 q40 38 78 0 q16 -16 16 -41 q0 -25 -16 -41 Z" /><glyph glyph-name="left-open" unicode="&#xe801;" d="M242 626 q14 16 39 16 q25 0 41 -16 q38 -36 0 -80 l-186 -196 l186 -194 q38 -44 0 -80 q-16 -16 -40 -16 q-24 0 -40 16 l-226 236 q-16 16 -16 39 q0 23 16 39 q206 214 226 236 Z" /><glyph glyph-name="right-open" unicode="&#xe802;" d="M98 626 l226 -236 q16 -16 16 -39 q0 -23 -16 -39 l-226 -236 q-16 -16 -40 -16 q-24 0 -40 16 q-36 36 0 80 l186 194 l-186 196 q-36 44 0 80 q16 16 41 16 q25 0 39 -16 Z" /><glyph glyph-name="up-open" unicode="&#xe803;" d="M564 280 q16 -16 16 -41 q0 -25 -16 -41 q-38 -38 -78 0 l-196 188 l-196 -188 q-40 -38 -78 0 q-16 16 -16 41 q0 25 16 41 l234 224 q16 16 40 16 q24 0 40 -16 l234 -224 Z" /><glyph glyph-name="down-open-mini" unicode="&#xe804;" d="M405 470 q22 26 48 0 q26 -22 0 -48 l-196 -192 q-22 -22 -48 0 l-196 192 q-26 26 0 48 q24 24 50 0 l170 -156 l172 156 Z" /><glyph glyph-name="left-open-mini" unicode="&#xe805;" d="M252 180 q26 -26 0 -48 q-26 -26 -48 0 l-192 194 q-24 24 0 50 l192 194 q22 26 48 0 q26 -22 0 -48 l-156 -172 l156 -170 Z" /><glyph glyph-name="right-open-mini" unicode="&#xe806;" d="M13 180 l158 170 l-158 172 q-26 26 0 48 q26 26 48 0 l192 -194 q24 -26 0 -50 l-192 -194 q-22 -26 -48 0 q-26 22 0 48 Z" /><glyph glyph-name="up-open-mini" unicode="&#xe807;" d="M62 230 q-26 -22 -50 1 q-24 23 0 49 l196 190 q26 26 48 0 l196 -190 q24 -26 0 -49 q-24 -23 -50 -1 l-170 158 l-170 -158 Z" /><glyph glyph-name="emo-coffee" unicode="&#xe808;" d="M1234 850 q-13 0 -25 -6 q-12 -6 -19 -17 q-25 -37 -29 -75 q-4 -31 7 -67 q7 -21 26 -62 l1 -3 q13 -27 14 -39 q4 -20 -10 -30 q-17 -13 -20 -35 q-3 -22 10 -39 q13 -17 35 -20 q22 -3 39 10 q42 31 54 66 q10 30 0 67 q-6 23 -27 68 l0 1 q-16 33 -19 50 q-6 29 6.5 48 q12.5 19 8.5 40 q-4 21 -22 34 q-13 9 -30 9 ZM213 729 q-61 0 -115 -28 q-54 -28 -88 -77 q-14 -19 -9.5 -41.5 q4.5 -22.5 23 -35.5 q18.5 -13 41 -9 q22.5 4 35.5 23 q22 31 56 46 q34 15 70.5 11.5 q36.5 -3.5 66.5 -25.5 l0 0 q6 -4 11 -9 l1 0 l1 -2 l11 -11 l0 -1 l1 -1 l1 0 q15 -17 38 -18.5 q23 -1.5 40 14 q17 15.5 18 38.5 q1 23 -14 39 q-34 41 -84 64 q-50 23 -104 23 ZM712 729 q-60 0 -114 -28 q-54 -28 -88 -77 q-13 -19 -9.5 -41 q3.5 -22 22.5 -35.5 q19 -13.5 41.5 -9.5 q22.5 4 35.5 23 q22 31 55.5 46 q33.5 15 70 11.5 q36.5 -3.5 66.5 -25.5 l0 0 q6 -3 12 -9 l1 -2 l12 -11 l0 -1 l1 -1 q15 -17 38 -18.5 q23 -1.5 40 14 q17 15.5 18.5 38.5 q1.5 23 -14.5 39 q-34 41 -84 64 q-50 23 -104 23 ZM918 383 q-18 0 -31 -12.5 q-13 -12.5 -13 -30.5 l1 -4 l-1 -275 l0 0 q0 -43 16.5 -81.5 q16.5 -38.5 45.5 -67.5 l0 0 l0 0 l0 0 q29 -29 67.5 -45.5 q38.5 -16.5 80.5 -16.5 l232 0 q26 2 38 5 q28 7 42 14 q42 20 71.5 54.5 q29.5 34.5 42.5 78.5 l31 0 q27 0 51.5 10.5 q24.5 10.5 42.5 28.5 q18 18 28 42 q10 24 10 50 l0 119 q0 27 -10.5 51 q-10.5 24 -28.5 42 l0 0 q-18 18 -42 28 q-24 10 -50 10 l-624 0 ZM1522 283 q16 0 28 -12 l1 0 q12 -14 12 -29 l0 -110 q0 -15 -12 -29 q-14 -12 -29 -12 l-62 0 q-16 0 -27.5 -10.5 q-11.5 -10.5 -12.5 -25.5 q-3 -31 -21 -56 q-18 -25 -46 -38 q-12 -5 -22 -8 q-14 -2 -21 -2 l-212 0 l0 -1 q-23 1 -43.5 9.5 q-20.5 8.5 -35.5 24.5 l-1 0 q-16 16 -25 37 q-9 21 -9 44 l1 218 l537 0 ZM1440 228 l0 -96 l32 0 q16 0 27.5 11 q11.5 11 11.5 27 l0 20 q0 16 -11.5 27 q-11.5 11 -27.5 11 l-32 0 ZM309 216 q-22 0 -38.5 -16 q-16.5 -16 -16.5 -38.5 q0 -22.5 16.5 -39 q16.5 -16.5 38.5 -16.5 l297 0 q22 0 38 16 q16 16 16 39 q0 23 -16 39 q-16 16 -38 16 l-297 0 Z" /><glyph glyph-name="down" unicode="&#xe809;" d="M0 283 q0 25 18 43 q18 18 44 18 q26 0 42 -18 l244 -243 l0 642 q0 25 18 43 q18 18 43 18 q25 0 43 -18 q18 -18 18 -43 l0 -642 l243 243 q18 18 43 18 q25 0 43 -18 q18 -18 18 -43 q0 -25 -18 -44 l-390 -390 l-391 390 q-18 20 -18 44 Z" /><glyph glyph-name="left" unicode="&#xe80a;" d="M0 353 l390 391 q19 18 44 18 q25 0 43 -18 q18 -18 18 -44 q0 -26 -18 -43 l-243 -243 l642 0 q25 0 43 -18 q18 -18 18 -43 q0 -25 -18 -43 q-18 -18 -43 -18 l-642 0 l243 -243 q18 -18 18 -44 q0 -26 -18 -43 q-18 -17 -43 -18 q-25 -1 -44 18 l-390 391 Z" /><glyph glyph-name="right" unicode="&#xe80b;" d="M0 347 q0 26 18 43 q18 17 43 17 l642 0 l-242 244 q-19 18 -19 44 q0 26 19 42 q17 19 42 19 q25 0 44 -19 l390 -390 l-390 -391 q-20 -18 -44 -18 q-24 0 -42 18 q-18 18 -19 44 q-1 26 19 43 l242 242 l-642 0 q-25 0 -43 18 q-18 18 -18 44 Z" /><glyph glyph-name="up" unicode="&#xe80c;" d="M0 354 q0 26 18 44 l391 390 l390 -390 q18 -18 18 -44 q0 -26 -18 -43.5 q-18 -17.5 -43 -17.5 q-25 0 -43 18 l-243 243 l0 -642 q0 -25 -18 -43 q-18 -18 -43.5 -18 q-25.5 0 -43.5 18 q-18 18 -17 43 l0 642 l-244 -243 q-18 -18 -43 -18 q-25 0 -43 17.5 q-18 17.5 -18 43.5 Z" /><glyph glyph-name="basket" unicode="&#xe80d;" d="M139 76 q34 0 56.5 -23 q22.5 -23 22.5 -55.5 q0 -32.5 -22.5 -55.5 q-22.5 -23 -55.5 -23 q-33 0 -56 23 q-23 23 -23 55.5 q0 32.5 23 55.5 q23 23 55 23 ZM669 76 q33 0 55 -23 q22 -23 22 -56 q0 -33 -22 -55.5 q-22 -22.5 -55 -22.5 q-33 0 -56 23 q-23 23 -23 55.5 q0 32.5 23 55.5 q23 23 56 23 ZM191 664 l565 0 q27 0 41 -14 q14 -14 14 -36 l0 -233 q0 -20 -13 -34 q-13 -14 -33 -16 l-505 -57 q-20 -2 -28.5 -16.5 q-8.5 -14.5 0 -28 q8.5 -13.5 31.5 -13.5 l478 0 q19 0 30 -12 q11 -12 11 -29 q0 -17 -11 -29 q-11 -12 -30 -12 l-488 0 q-40 0 -69 20 q-27 19 -37.5 49 q-10.5 30 -0.5 61 q11 32 42 55 l43 33 l-155 339 l-76 0 q-21 0 -32.5 13.5 q-11.5 13.5 -11.5 31.5 q0 18 11.5 31.5 q11.5 13.5 32.5 13.5 l89 0 q31 0 47 -15 q11 -10 24 -39 l31 -63 ZM536 594 l-130 0 l27 -85 l123 0 l-20 85 ZM224 594 l39 -85 l126 0 l-28 85 l-137 0 ZM333 353 l100 10 l-33 101 l-119 0 l52 -111 ZM476 368 l113 11 l-25 85 l-119 0 l31 -96 ZM743 397 l0 67 l-133 0 l20 -78 l113 11 ZM743 509 l0 85 l-162 0 l19 -85 l143 0 Z" /><glyph glyph-name="ico-follow" unicode="&#xe80e;" d="M656 330 q51 0 93.5 25 q42.5 25 67 68 q24.5 43 24.5 94 q0 51 -24.5 94 q-24.5 43 -67 68 q-42.5 25 -93.5 25 q-51 0 -93.5 -25 q-42.5 -25 -67.5 -68 q-25 -43 -25 -94 q0 -51 25 -94 q25 -43 67.5 -68 q42.5 -25 93.5 -25 ZM656 644 q34 0 63.5 -17 q29.5 -17 46.5 -46.5 q17 -29.5 17 -64 q0 -34.5 -17 -64.5 q-17 -30 -46.5 -47.5 q-29.5 -17.5 -63.5 -17.5 q-34 0 -63.5 17 q-29.5 17 -46.5 47 q-17 30 -17 65 q0 35 17 64.5 q17 29.5 46.5 46.5 q29.5 17 63.5 17 ZM783 264 l-253 0 q-54 0 -99.5 -27 q-45.5 -27 -72.5 -73 q-27 -46 -27 -100 l0 -38 q0 -12 8.5 -21 q8.5 -9 20.5 -9 q12 0 20.5 8.5 q8.5 8.5 8.5 21.5 l0 38 q0 38 18.5 70.5 q18.5 32.5 51 52 q32.5 19.5 70.5 19.5 l252 0 q38 0 70.5 -19 q32.5 -19 51 -51.5 q18.5 -32.5 18.5 -71.5 l0 -38 q0 -12 8.5 -21 q8.5 -9 20.5 -9 q12 0 20.5 8.5 q8.5 8.5 8.5 21.5 l0 38 q1 55 -25 101 q-26 46 -71.5 72.5 q-45.5 26.5 -99.5 26.5 ZM246 414 l-125 -124 l-52 53 q-9 8 -21 8 q-12 0 -20.5 -8.5 q-8.5 -8.5 -8.5 -20.5 q0 -12 8 -21 l74 -74 q8 -8 20.5 -8 q12.5 0 19.5 8 l145 146 q8 8 8 20.5 q0 12.5 -7.5 21 q-7.5 8.5 -20 8.5 q-12.5 0 -20.5 -9 Z" /><glyph glyph-name="ico-world" unicode="&#xe80f;" d="M507 801 q-124 0 -231 -63 q-104 -61 -164 -165 q-63 -106 -63 -230 q0 -124 63 -231 q60 -104 164 -165 q107 -63 231 -63 q124 0 231 63 q104 61 165 165 q63 107 63 231 q0 124 -63 231 q-61 104 -165 164 q-107 63 -231 63 ZM507 749 q63 0 129 -22 q-13 -20 -13 -44 q0 -19 8 -40 q4 -13 17 -37 l1 -3 q10 -20 14 -29 q6 -16 6 -27 q0 -7 -2 -9 q-2 -2 -7 -5 l-1 0 q-15 -4 -62 -4 q-30 0 -46 -2 q-27 -3 -49 -14 q-28 -12 -53 -37 q-6 -5 -12.5 -4.5 q-6.5 0.5 -25.5 9.5 q-25 14 -44 16 q-30 3 -54 -21 q-16 -16 -22.5 -37.5 q-6.5 -21.5 -1.5 -44.5 q-9 4 -30 9 q-18 5 -25 8 q-11 4 -13 9 l0 0 q-5 29 40 101 q41 63 19 99 q-11 20 -40 29 q55 47 122 73 q70 27 145 27 ZM507 -63 q-110 0 -204 55 q-92 54 -146 146 q-56 95 -56 205 q0 70 24 137 q23 63 66 117 q38 0 42 -6 l0 0 q0 -13 -17 -42 q-33 -53 -43.5 -88.5 q-10.5 -35.5 -1.5 -60.5 q8 -21 30 -33 q13 -7 42 -15 q22 -7 31 -11 q25 -11 63 -30 q51 -27 57 -37 l0 -45 q0 -21 16 -38 q10 -11 35 -26 l6 -4 q10 -5 20 -12 q12 -8 13 -12 q0 -143 25 -200 q1 1 0 0.5 q-1 -0.5 -2 -0.5 ZM577 -33 q0 -8 -10 -21 q-9 13 -16 46 q-10 52 -10 145 q0 24 -19 44 q-13 12 -41 28 q-26 13 -30 21 l0 44 q0 10 -2 20 q49 6 82 32 l4 2 q8 6 12 8 q7 3 14 3 l0 0 q2 -2 10 -14 l3 -4 q22 -37 49 -55 q24 -16 70 -26 q19 -3 23 -7 l0 -3 q0 -37 -26 -73 q-15 -21 -53 -57 l-4 -4 q-28 -27 -37 -40 q-16 -21 -16 -42 q-3 -5 -3 -47 ZM630 -43 q0 1 0 4 q1 5 0 8 l0 44 l1 3 q2 5 8 11 q9 12 31 32 q44 41 64 70 q33 48 33 100 q0 31 -24 48 q-10 6 -32 12 l-8 2 q-34 8 -50 18 q-18 12 -34 40 l-3 5 q-12 18 -21 26 q-15 13 -34.5 13 q-19.5 0 -35.5 -7 q-10 -5 -24 -15 l-4 -2 q-15 -11 -26 -15 q-19 -7 -48 -7 q-29 0 -50 15 q-18 12 -26 31 q-10 28 6 44 q5 5 11.5 4.5 q6.5 -0.5 25.5 -10.5 l1 -1 q27 -13 44 -14 q31 -3 55 21.5 q24 24.5 53 31.5 q18 5 56 5 q26 0 40 1 q23 1 38 6 q23 8 35 24.5 q12 16.5 12 41.5 q0 18 -7 38 q-4 12 -15 35 l-3 7 q-10 20 -14 30 q-6 15 -6 26 q0 11 3 15.5 q3 4.5 14 4.5 q99 -51 158 -146 q60 -98 60 -214 q0 -88 -38 -169 q-36 -77 -100.5 -134 q-64.5 -57 -145.5 -83 Z" /><glyph glyph-name="ico-call" unicode="&#xe810;" d="M763 220 q-28 30 -65.5 30 q-37.5 0 -66.5 -30 l-61 -61 q-4 1 -10 5 l-4 2 q-4 2 -12 6 l-7 4 q-85 52 -158 145 q-31 37 -53 83 q30 30 44 45 q6 5 16 17 q30 30 30 66.5 q0 36.5 -30 67.5 l-53 53 q-13 13 -19 18 q-11 12 -35 36 q-29 29 -66 29 q-37 0 -64 -29 q0 0 0 0 l-66 -66 q-38 -37 -43 -91 q-5 -67 24 -144 q24 -64 60.5 -124 q36.5 -60 88.5 -122 q126 -151 303 -239 q92 -44 170 -50 l13 0 q68 0 111 49 l1 1 q7 9 24 25 l11 11 q5 5 15 15 l10 9 q29 31 29 68.5 q0 37.5 -30 64.5 l-107 106 ZM831 16 q-5 -7 -17 -18 l-7 -7 q-21 -18 -37 -38 q-29 -32 -73 -32 l-8 0 q-72 6 -152 46 q-164 79 -286 224 q-49 61 -83.5 117.5 q-34.5 56.5 -56.5 114.5 q-26 68 -21 121 q2 35 27 57 l66 66 q16 14 30 14 q12 0 26 -10 l2 -2 l0 0 l106 -106 q30 -30 0 -60 l-6 -6 q-7 -8 -11 -11 q-27 -29 -49 -47 l0 0 q-1 -1 -1 -2 q-11 -11 -12 -24 q-1 -8 2 -20 l0 -2 q22 -51 63 -101 l0 0 q77 -96 171 -156 l25 -13 q4 -1 11 -6 l7 -4 q1 0 2 -1 l1 0 q9 -4 19 -4 q12 0 26 11 l4 2 l65 65 q15 15 28.5 15 q13.5 0 28.5 -15 q0 0 0 0 l108 -107 q32 -29 2 -61 ZM533 570 q38 -7 72 -24.5 q34 -17.5 61 -44.5 q56 -56 68 -132 q1 -10 8.5 -16 q7.5 -6 17.5 -6 l4 0 q11 2 17.5 11 q6.5 9 4.5 19 q-15 92 -85 162 q-65 65 -161 84 q-10 2 -19 -4.5 q-9 -6.5 -11 -17.5 q0 -11 6.5 -20 q6.5 -9 16.5 -11 ZM954 384 q-13 77 -48 144 q-35 67 -90 122 q-55 55 -122.5 89.5 q-67.5 34.5 -143.5 47.5 q-10 2 -19 -4 q-9 -6 -11 -17 q-2 -11 4 -19.5 q6 -8.5 17 -10.5 q68 -11 129 -42.5 q61 -31.5 109.5 -81 q48.5 -49.5 80 -109.5 q31.5 -60 41.5 -127 q1 -10 8.5 -16 q7.5 -6 17.5 -6 l4 0 q12 1 18.5 10 q6.5 9 4.5 20 Z" /><glyph glyph-name="ico-twitter" unicode="&#xe811;" d="M934 629 q3 8 3 18 q0 25 -17 42.5 q-17 17.5 -41 17.5 l-5 0 q-11 0 -25 -7 l-3 -1 q-3 -2 -5 -2 l-2 -1 q-32 -12 -49 -19 q-44 32 -100 44 q-6 3 -14 3 l-43 0 q-7 0 -16 -3 q-63 -15 -101 -48 q-68 -56 -80 -139 q-134 29 -223 135 q-17 20 -47 20 l0 0 q-13 0 -25.5 -6 q-12.5 -6 -21.5 -16 q-24 -28 -32.5 -66.5 q-8.5 -38.5 -0.5 -81.5 q5 -28 14 -48 q-12 -11 -14 -32 q-10 -86 58 -158 l0 -4 q-3 -14 0 -21 q10 -59 59 -100 q-27 -7 -60 -7 l-23 0 q-20 0 -36 -12 q-16 -12 -22 -31.5 q-6 -19.5 2 -39 q8 -19.5 26 -30.5 q2 -3 6 -3 l17 -10 q117 -63 246 -63 q46 0 95 9 q156 27 269 135 q53 53 90 121.5 q37 68.5 54 147.5 q5 20 8 59 l1 12 l1 25 q36 30 69 75 q11 16 11 36 q-1 29 -23 49 ZM826 507 q-8 -5 -10 -19.5 q-2 -14.5 -5 -42.5 q-3 -39 -7 -58 q-31 -143 -127.5 -237.5 q-96.5 -94.5 -236.5 -119.5 q-34 -7 -84 -7 q-114 0 -217 56 q-5 1 -14 6 l-8 5 l23 -1 q63 0 124 23 q54 20 80 47 q-59 8 -96.5 36.5 q-37.5 28.5 -46.5 71.5 q33 3 63 3 q-63 30 -94 71.5 q-31 41.5 -26 89.5 l62 -15 q-33 35 -50 74.5 q-17 39.5 -14.5 76 q2.5 36.5 25.5 62.5 q128 -151 330 -165 q0 3 -1 7 l0 2 q-11 94 58 153 q15 12 36 21 q13 6 40 15 l3 1 l43 0 q63 -17 97 -50 q2 -3 7 -3 l4 0 l30 11 q30 11 46 16 l2 1 q8 4 14 8 q-22 -55 -67 -85 l1 -2 l32 9 q33 9 51 13 q-25 -35 -67 -74 Z" /><glyph glyph-name="ico-storage" unicode="&#xe812;" d="M844 314 l-365 0 l0 366 q0 12 -8.5 20.5 q-8.5 8.5 -20.5 8.5 q-114 -1 -212 -59 q-95 -56 -151 -151 q-58 -98 -58 -212.5 q0 -114.5 58 -212.5 q56 -96 151 -152 q99 -58 213 -58 q114 0 212 58 q95 56 151 152 q57 98 57 213 q0 12 -8 19.5 q-8 7.5 -19 7.5 ZM423 650 l0 -296 l-210 210 q44 37 97.5 59.5 q53.5 22.5 112.5 26.5 ZM451 -80 q-99 0 -184 50 q-83 49 -131 131 q-50 86 -50 185 q0 67 23 128 q23 61 65 109 l257 -257 q9 -9 20 -9 l363 0 q-7 -92 -57 -169.5 q-50 -77.5 -130 -121.5 q-82 -46 -176 -46 ZM563 821 q-12 0 -20.5 -8 q-8.5 -8 -8.5 -20 l0 -394 q0 -12 8.5 -20.5 q8.5 -8.5 20.5 -8.5 l394 0 q12 0 20.5 8.5 q8.5 8.5 8.5 20.5 q0 114 -58 213 q-56 95 -152 151 q-98 58 -213 58 ZM591 427 l0 337 q89 -7 164 -54 q74 -45 120.5 -119.5 q46.5 -74.5 53.5 -163.5 l-338 0 Z" /><glyph glyph-name="ico-love" unicode="&#xe813;" d="M449 -71 q17 -19 44 -19 q27 0 44 19 l350 351 q40 40 61.5 91.5 q21.5 51.5 21.5 108.5 q0 57 -21.5 108.5 q-21.5 51.5 -61.5 91.5 q-40 40 -91 61.5 q-51 21.5 -107 21.5 q-56 0 -106 -20.5 q-50 -20.5 -90 -59.5 q-40 38 -90.5 58 q-50.5 20 -105.5 20 q-55 0 -107 -21.5 q-52 -21.5 -91.5 -61 q-39.5 -39.5 -61 -91.5 q-21.5 -52 -21.5 -108.5 q0 -56.5 21.5 -107.5 q21.5 -51 61.5 -92 l350 -350 ZM133 644 q33 33 75.5 51 q42.5 18 89 18 q46.5 0 89.5 -17.5 q43 -17.5 76 -51.5 l14 -14 q7 -7 17 -7 l0 0 q10 0 17 7 l15 14 q33 34 75.5 51.5 q42.5 17.5 90 17.5 q47.5 0 90 -17.5 q42.5 -17.5 75 -51 q32.5 -33.5 50 -76 q17.5 -42.5 17.5 -89.5 q0 -47 -17.5 -90 q-17.5 -43 -50.5 -76 l-352 -350 q-4 -4 -10 -4 q-6 0 -11 4 l-350 351 q-33 34 -51 76.5 q-18 42.5 -18 89 q0 46.5 18 89 q18 42.5 51 75.5 Z" /><glyph glyph-name="ico-instaplus" unicode="&#xe814;" d="M676 119 q44 0 73 4 l17 2 q21 3 28 5.5 q7 2.5 12 9.5 q7 15 11 31 q6 32 6 48.5 q0 16.5 -4 46.5 q-1 7 -7.5 11 q-6.5 4 -14.5 3 l-40 -10 q-8 -2 -12 -9 q-4 -7 -1 -15 l5 -13 q1 -9 -3.5 -15.5 q-4.5 -6.5 -12.5 -7.5 l-9 -1 q-29 -2 -47 -2 l-650 0 l0 -96 l107 6 l542 0 l0 2 ZM719 76 q-1 1 -4 1 q-9 4 -11 3 q-7 -1 -18 -17 q-11 -16 -13 -24 q4 -6 20 -18 q13 -9 23 -14 q8 5 18 22 q12 18 10 22 q0 4 -8 12 l-17 13 ZM643 76 q-12 5 -14 4 q-8 -1 -19 -17 q-8 -11 -13 -24 q4 -6 20 -18 q13 -9 23 -14 q7 3 19 22 q11 16 10 22 q0 3 -9 12 q-7 5 -17 13 ZM566 76 q-12 5 -15 4 q-7 -1 -18 -17 q-11 -16 -13 -24 q4 -6 20 -18 q13 -9 23 -14 q7 4 18 22 q13 16 10 22 q0 4 -8 12 q-2 2 -8 6 q-6 4 -9 7 ZM726 820 l-429 0 q-72 0 -132.5 -35 q-60.5 -35 -96 -95.5 q-35.5 -60.5 -35.5 -132.5 l0 -294 q0 -8 5.5 -13.5 q5.5 -5.5 12.5 -5.5 l49 0 q7 0 12 5.5 q5 5.5 5 11.5 l0 296 q0 49 24 90 q24 41 65 65 q41 24 90 24 l428 0 q49 0 90 -24 q41 -24 65 -65 q24 -41 24 -90 l0 -427 q0 -49 -24 -90 q-24 -41 -65 -65 q-41 -24 -90 -24 l-428 0 q-56 0 -101 32 q-45 32 -66 83 q-5 12 -20 14 l-56 0 q-7 0 -11 -5.5 q-4 -5.5 -2 -11.5 q15 -56 52 -100 q37 -44 90 -69 q53 -25 114 -25 l428 0 q72 0 133 35 q61 35 96.5 95.5 q35.5 60.5 35.5 131.5 l0 425 q0 71 -36 133 q-35 60 -95.5 95.5 q-60.5 35.5 -131.5 35.5 ZM811 554 q19 19 19 45 q0 11 -5 23 q-5 12 -14 21 q-18 18 -44 18 q-12 0 -24 -5 q-12 -5 -20 -13 q-19 -19 -19 -44 q0 -12 5 -24 q5 -12 14 -21 q18 -18 44 -18 q26 0 44 18 Z" /><glyph glyph-name="ico-flag" unicode="&#xe815;" d="M939 770 q-8 3 -16 2 q-8 -1 -14 -5 q-55 -43 -121.5 -41 q-66.5 2 -123.5 47 q-2 3 -7 4 q-64 47 -138 51 q-74 4 -139 -35 q-13 17 -30.5 26.5 q-17.5 9.5 -38.5 9.5 q-34 0 -59 -24.5 q-25 -24.5 -25 -58.5 l0 -697 q-41 -9 -71 -38.5 q-30 -29.5 -37 -69.5 l-32 0 q-12 0 -20 -8 q-8 -8 -8 -19 q0 -11 8 -19 q8 -8 20 -8 l447 0 q12 0 20.5 8 q8.5 8 8.5 19.5 q0 11.5 -8.5 19 q-8.5 7.5 -20.5 7.5 l-31 0 q-9 42 -38.5 71.5 q-29.5 29.5 -70.5 36.5 l0 294 q55 38 118 36 q63 -2 117 -43 q47 -37 102 -50 q55 -13 110.5 -0.5 q55.5 12.5 101.5 50.5 q10 7 10 21 l0 389 q1 8 -3 14.5 q-4 6.5 -11 9.5 ZM283 746 q0 11 8.5 19 q8.5 8 19.5 8 q11 0 20 -8.5 q9 -8.5 9 -18.5 l0 -695 l-56 0 l0 695 l-1 0 ZM446 -59 l-269 0 q9 25 31 40.5 q22 15.5 48 15.5 l111 0 q27 0 48.5 -15.5 q21.5 -15.5 30.5 -40.5 ZM899 371 q-55 -38 -118 -36 q-63 2 -117 44 q-60 47 -131.5 54 q-71.5 7 -136.5 -26 l0 330 q55 38 118 35.5 q63 -2.5 116 -43.5 q1 -1 4 -3 l3 -2 q60 -44 129.5 -52 q69.5 -8 133.5 24 l0 -325 l-1 0 Z" /><glyph glyph-name="ico-telegram" unicode="&#xe816;" d="M956 717 q-12 14 -28.5 22 q-16.5 8 -34.5 8 q-18 0 -30 -6 l-807 -314 q-22 -8 -34 -26 q-12 -18 -10.5 -41 q1.5 -23 14.5 -39.5 q13 -16.5 35 -23.5 l163 -48 l52 -193 l0 -2 q8 -24 27.5 -38.5 q19.5 -14.5 43.5 -14.5 q31 0 53 22 l89 84 l214 -167 l1 0 q24 -16 49 -16 l0 0 q29 0 52 18.5 q23 18.5 29 47.5 l137 660 q4 18 0 35.5 q-4 17.5 -15 31.5 ZM757 6 q0 -3 -4 -3 l-2 0 l-240 187 q-12 8 -26.5 7.5 q-14.5 -0.5 -24.5 -10.5 l-29 -27 l-11 47 q-2 10 1 19.5 q3 9.5 12 16.5 l373 310 q6 6 1 13 q-5 7 -13 3 l-438 -268 q-8 -4 -11.5 -12.5 q-3.5 -8.5 -1.5 -17.5 l37 -158 l-30 -29 l-54 206 q-2 10 -10 17.5 q-8 7.5 -17 9.5 l-156 47 l780 305 l2 0 q1 -1 1 -2 l-139 -661 Z" /><glyph glyph-name="ico-mail" unicode="&#xe817;" d="M933 677 q-24 24 -59 24 l-760 0 q-35 0 -58 -24 q-25 -27 -25 -58 l0 -566 q0 -34 24.5 -58.5 q24.5 -24.5 58.5 -24.5 l762 0 q34 0 58.5 24.5 q24.5 24.5 24.5 58.5 l0 566 q-3 35 -26 58 ZM891 53 q0 -8 -5 -12 q-5 -4 -10 -4 l-762 0 q-5 0 -10 4 q-5 4 -5 12 l0 398 q22 -24 35 -34 q129 -99 220 -176 l10 -8 q24 -20 33 -26 q24 -16 44 -26 q29 -12 53 -12 l0 0 l0 0 q26 0 53.5 12.5 q27.5 12.5 43.5 25.5 q19 14 43 34 q110 92 220 176 q16 13 36 34 l0 -398 l1 0 ZM891 604 l0 -5 q0 -30 -24 -69 q-24 -39 -51 -60 l-58 -46 q-98 -77 -149 -118 l-19 -16 q-4 -4 -12.5 -10.5 q-8.5 -6.5 -11.5 -9.5 l-7 -5 q-10 -7 -16 -11 l-13 -7 q-9 -5 -13 -7 q-11 -4 -23 -4 l0 0 l0 0 q-11 0 -23 4 q-7 3 -22 12 l-3 2 q-6 4 -16 11 l-7 5 q-7 5 -24 20 q-14 13 -19 16 l-207 164 q-76 61 -76 147 q0 6 4 12 q6 4 12 4 l761 0 q3 -2 7.5 -2 q4.5 0 4.5 -4 l0 -1 q1 -3 2.5 -3 q1.5 0 1.5 -7 l0 -12 l1 0 Z" /><glyph glyph-name="headphones" unicode="&#xe818;" d="M0 69 l0 250 q0 207 147 353 q147 146 353 147 q206 1 354 -147 q148 -148 146 -353 l0 -250 q-4 -41 -35 -54 q-31 -13 -61 5 q-30 18 -29 49 l0 250 q0 156 -109 265 q-109 109 -266 110 q-157 1 -266 -110 q-109 -111 -109 -265 l0 -250 q-4 -41 -35 -54 q-31 -13 -61 5 q-30 18 -29 49 ZM188 -88 l0 313 q0 14 8 22 q8 8 23 9 l62 0 q14 0 23 -9 q9 -9 9 -22 l0 -313 q0 -13 -9 -22 q-9 -9 -23 -9 l-62 0 q-14 0 -23 9 q-9 9 -8 22 ZM688 -88 l0 313 q0 14 8 22 q8 8 23 9 l62 0 q14 0 23 -9 q9 -9 9 -22 l0 -313 q0 -13 -9 -22 q-9 -9 -23 -9 l-62 0 q-14 0 -23 9 q-9 9 -8 22 Z" /><glyph glyph-name="search" unicode="&#xe819;" d="M643 386 q0 103 -73 176 q-73 73 -177 74 q-104 1 -177 -74 q-73 -75 -73 -176 q0 -101 73 -177 q73 -76 177 -73 q104 3 177 73 q73 70 73 177 ZM929 -79 q0 -29 -22 -50 q-22 -21 -51 -21 q-29 0 -49 21 l-191 191 q-100 -69 -223 -69 q-80 0 -153 31 q-73 31 -125 84 q-52 53 -84 125 q-32 72 -31 153 q1 81 31 152 q30 71 84 126 q54 55 125 84 q71 29 153 31 q82 2 153 -31 q71 -33 125 -84 q54 -51 84 -126 q30 -75 31 -152 q0 -123 -69 -223 l191 -191 q21 -21 21 -51 Z" /><glyph glyph-name="heart-1" unicode="&#xe81a;" d="M1 532 q7 111 75 183 q94 80 212 70 q118 -10 190 -98 q38 49 92 79 q113 43 217 3 q104 -40 150 -140 q30 -106 10 -199 q-20 -93 -78 -174 q-68 -94 -174 -184 q-53 -49 -124 -103 q-71 -54 -93 -57 q-13 2 -28 12 q-15 10 -35 25 q-20 15 -24 20 q-264 199 -348 357 q-49 96 -42 206 Z" /><glyph glyph-name="heart-empty-1" unicode="&#xe81b;" d="M1 521 q7 115 79 191 l2 0 l2 2 q88 76 199 76 q111 0 191 -70 q32 28 67 45 l2 2 l2 0 q56 23 117 23 q88 2 161 -43 q73 -45 110 -124 l0 -2 l2 -4 q30 -106 10 -202 q-20 -96 -80 -175 q-62 -88 -162 -172 q0 -2 -2 -2 q-49 -45 -107 -90 q-34 -25 -59 -41 q-33 -23 -55 -23 l-6 -2 l-5 2 q-28 3 -59 29 q-10 6 -21 16 q-11 10 -16 13 l-2 0 q-246 188 -328 340 l0 2 q-49 94 -42 209 ZM86 511 q-6 -86 33 -162 q74 -135 303 -310 l2 0 q6 -6 18 -16 q12 -10 19 -14 q8 -6 15 -10 q8 2 14 6 q22 14 51 37 q58 43 105 88 q94 80 151 161 q107 142 58 298 q-27 57 -78 88 q-51 31 -113 29 q-43 0 -86 -17 q-39 -22 -68 -57 l-32 -43 l-35 43 q-52 65 -141 73 q-89 8 -161 -53 q-49 -55 -55 -141 Z" /><glyph glyph-name="heart-2" unicode="&#xe81c;" d="M775 849 q126 0 207 -80 q81 -80 81 -207 l0 -60 q0 -285 -532 -653 q-531 367 -531 653 l0 60 q0 127 81 207 q81 80 206 80 q81 0 134 -30 q53 -30 110 -99 q58 68 111 99 q53 31 133 30 Z" /><glyph glyph-name="heart-empty-2" unicode="&#xe81d;" d="M1063 562 l0 -60 q0 -285 -532 -653 q-531 367 -531 653 l0 60 q0 127 81 207 q81 80 206 80 q81 0 134 -30 q53 -30 110 -99 q58 68 111 99 q53 31 133 30 q126 0 207 -80 q81 -80 81 -207 ZM946 507 l0 50 q0 58 -39 114 q-39 56 -95 61 q-12 2 -37 2 q-53 0 -83 -19 q-30 -19 -72 -69 l-89 -105 l-89 105 q-42 49 -72 69 q-30 20 -83 19 q-24 0 -37 -2 q-56 -6 -93 -60 q-37 -54 -41 -115 l0 -50 q0 -30 17 -75 q68 -199 398 -441 q329 239 399 441 q16 50 16 75 Z" /><glyph glyph-name="coffee" unicode="&#xe81e;" d="M634 193 q-6 0 -10.5 -4 q-4.5 -4 -4.5 -10 l0 -14 q0 -6 4.5 -10.5 q4.5 -4.5 10.5 -4.5 q6 0 10.5 4.5 q4.5 4.5 4.5 10.5 l0 14 q0 6 -4.5 10 q-4.5 4 -10.5 4 ZM787 193 q-6 0 -10.5 -4 q-4.5 -4 -4.5 -10 l0 -14 q0 -6 4.5 -10.5 q4.5 -4.5 10.5 -4.5 q6 0 10 4.5 q4 4.5 4 10.5 l0 14 q0 6 -4 10 q-4 4 -10 4 ZM743 176 q-5 4 -11 3.5 q-6 -0.5 -9.5 -5.5 q-3.5 -5 -11.5 -5 q-8 0 -12.5 5 q-4.5 5 -10 5.5 q-5.5 0.5 -10.5 -3.5 q-5 -4 -5.5 -10 q-0.5 -6 3.5 -11 q15 -15 34.5 -15 q19.5 0 34.5 15 q4 4 3.5 10.5 q-0.5 6.5 -5.5 10.5 ZM720 471 q-2 1 -2 4.5 q0 3.5 2 4.5 q12 11 12 28 q0 17 -12 26 q-2 2 -2 5.5 q0 3.5 2 4.5 q5 5 5 11 q0 6 -4 10.5 q-4 4.5 -10 4.5 q-6 0 -10 -4 q-13 -10 -13 -26.5 q0 -16.5 13 -27.5 q2 -1 2 -4.5 q0 -3.5 -2 -5.5 q-13 -10 -13 -26.5 q0 -16.5 13 -27.5 q4 -4 10 -3.5 q6 0.5 10 5 q4 4.5 4 10.5 q0 6 -5 11 ZM648 403 q-2 2 -2 5 q0 3 2 5 q12 11 12 27.5 q0 16.5 -12 26.5 q-2 2 -2 5 q0 3 2 5 q5 4 5.5 10 q0.5 6 -3.5 10.5 q-4 4.5 -10 5 q-6 0.5 -11 -3.5 q-12 -10 -12 -26.5 q0 -16.5 12 -27.5 q2 -2 2 -5 q0 -3 -2 -5 q-12 -10 -12 -26.5 q0 -16.5 12 -27.5 q5 -4 11 -3.5 q6 0.5 10 5 q4 4.5 3.5 10.5 q-0.5 6 -5.5 10 ZM792 403 q-2 2 -2 5 q0 3 2 5 q12 11 12 27.5 q0 16.5 -12 26.5 q-2 2 -2 5 q0 3 2 5 q5 4 5 10 q0 6 -4 10.5 q-4 4.5 -9.5 5 q-5.5 0.5 -10.5 -3.5 q-13 -11 -13 -27 q0 -16 13 -27 q2 -2 2 -5 q0 -3 -2 -5 q-13 -11 -13 -27 q0 -16 13 -27 q5 -4 10.5 -3.5 q5.5 0.5 9.5 5 q4 4.5 4 10.5 q0 6 -5 10 ZM454 236 q-6 0 -10.5 -4.5 q-4.5 -4.5 -4.5 -10.5 l0 -17 q0 -6 4.5 -10.5 q4.5 -4.5 10.5 -4.5 q6 0 10.5 4.5 q4.5 4.5 4.5 10.5 l0 17 q0 6 -4.5 10.5 q-4.5 4.5 -10.5 4.5 ZM263 236 q-6 0 -10.5 -4.5 q-4.5 -4.5 -4.5 -10.5 l0 -17 q0 -6 4.5 -10.5 q4.5 -4.5 10.5 -4.5 q6 0 10.5 4.5 q4.5 4.5 4.5 10.5 l0 17 q0 6 -4.5 10.5 q-4.5 4.5 -10.5 4.5 ZM397 215 q-5 4 -11 3.5 q-6 -0.5 -10 -4.5 q-6 -8 -17.5 -8 q-11.5 0 -17.5 8 q-4 4 -10 4.5 q-6 0.5 -11 -3.5 q-5 -4 -5 -10 q0 -6 4 -11 q14 -17 39.5 -17 q25.5 0 40.5 17 q4 5 3.5 11 q-0.5 6 -5.5 10 ZM368 623 q-4 4 -4 9 q0 5 4 9 q14 12 14 31 q0 19 -14 31 q-4 4 -10 4 q-6 0 -10.5 -4.5 q-4.5 -4.5 -4 -11 q0.5 -6.5 5 -10.5 q4.5 -4 4.5 -9 q0 -5 -4 -9 q-14 -11 -14 -30.5 q0 -19.5 14 -31.5 q4 -4 4 -9 q0 -5 -4.5 -9 q-4.5 -4 -5 -10 q-0.5 -6 4 -10.5 q4.5 -4.5 10.5 -5 q6 -0.5 10 3.5 q14 12 14 31.5 q0 19.5 -14 30.5 ZM458 539 q-4 3 -4 9 q0 6 4 9 q14 12 14 31 q0 19 -14 31 q-5 4 -11 3.5 q-6 -0.5 -10 -4.5 q-4 -4 -3.5 -10.5 q0.5 -6.5 5 -10.5 q4.5 -4 4.5 -9 q0 -5 -4 -9 q-14 -12 -14 -31 q0 -19 14 -31 q4 -4 4 -9 q0 -5 -4.5 -9 q-4.5 -4 -5 -10 q-0.5 -6 3.5 -10.5 q4 -4.5 10.5 -5 q6.5 -0.5 10.5 3.5 q14 12 14 31 q0 19 -14 31 ZM278 539 q-4 4 -4 9 q0 5 4 9 q14 12 14 31 q0 19 -14 31 q-5 4 -10.5 3.5 q-5.5 -0.5 -9.5 -4.5 q-4 -4 -4 -10.5 q0 -6.5 4.5 -10 q4.5 -3.5 4.5 -9.5 q0 -6 -4 -9 q-14 -12 -14 -31 q0 -19 14 -31 q4 -3 4 -9 q0 -6 -4.5 -9.5 q-4.5 -3.5 -4.5 -9.5 q0 -6 4 -10.5 q4 -4.5 10 -5 q6 -0.5 10 3.5 q14 12 14 31 q0 19 -14 31 ZM986 227 q-13 21 -33 32.5 q-20 11.5 -44 13.5 q0 9 -1 14 q-1 19 -14.5 32.5 q-13.5 13.5 -33.5 13.5 l-50 0 q-6 0 -10 -4 q-4 -4 -4 -10 q0 -6 4 -10.5 q4 -4.5 10 -4.5 l50 0 q8 0 13.5 -5.5 q5.5 -5.5 5.5 -13.5 l1 -27 q-2 -108 -47 -179 q-15 -25 -40 -48 q-11 -8 -25 -8 l-116 0 q-14 0 -24 8 q-41 35 -64 94 q1 1 3 5 q14 32 21 64 q11 49 15 110 l149 0 q6 0 10 4.5 q4 4.5 4 10.5 q0 6 -4 10 q-4 4 -10 4 l-149 0 q0 16 -1 23 q-1 23 -17.5 39 q-16.5 16 -39.5 16 l-246 0 q-6 0 -10 -4.5 q-4 -4.5 -4 -10.5 q0 -6 4 -10 q4 -4 10 -4 l246 0 q11 0 19 -8 q8 -8 9 -19 q5 -81 -15 -159 q-6 -26 -20 -58 q-26 -62 -74 -103 q-13 -12 -33 -12 l-145 0 q-19 0 -33 12 q-29 25 -51 59 q-29 46 -44 107 q-19 72 -14 154 q1 11 9 19 q8 8 19 8 l69 0 q6 0 10.5 4 q4.5 4 4.5 10 q0 6 -4.5 10.5 q-4.5 4.5 -10.5 4.5 l-69 0 q-23 0 -39.5 -16 q-16.5 -16 -17.5 -39 q-1 -6 -1 -20 q-30 -1 -55.5 -15.5 q-25.5 -14.5 -41.5 -40.5 q-16 -26 -17 -56 q-1 -30 13 -58 q25 -46 69 -72.5 q44 -26.5 96 -26.5 l7 0 q20 -30 49 -54 q22 -20 52 -20 l145 0 q30 0 52 20 q37 29 64 78 q26 -51 62 -82 q19 -16 43 -16 l116 0 q25 0 44 16 q22 21 39 43 l4 0 q42 0 78.5 22 q36.5 22 55.5 59 q12 23 11 47.5 q-1 24.5 -14 46.5 ZM129 194 q5 -19 12 -39 q-36 13 -55 49 q-9 16 1 33 q10 17 31 17 l1 -7 q6 -36 10 -53 ZM39 180 q-11 20 -10 43 q1 23 12.5 42 q11.5 19 31 30 q19.5 11 41.5 11 l2 -23 q-17 0 -31.5 -8 q-14.5 -8 -23 -22 q-8.5 -14 -9 -30.5 q-0.5 -16.5 7.5 -31.5 q14 -27 39 -45.5 q25 -18.5 55 -24.5 l13 -25 q-40 3 -74 25.5 q-34 22.5 -54 58.5 ZM897 156 q0 3 1 8 q5 25 7 38 q14 -2 21 -12.5 q7 -10.5 0 -23.5 q-12 -22 -36 -35 l7 25 ZM963 147 q-14 -27 -39 -44 q-25 -17 -55 -21 l6 13 q1 0 1 1 l0 0 q24 5 44 20 q20 15 32 37 q7 13 6.5 26.5 q-0.5 13.5 -8 25 q-7.5 11.5 -18.5 18.5 q-11 7 -24 8 q0 0 0 0 q0 9 1 12 l0 1 q16 -2 30 -10 q14 -8 22.5 -22.5 q8.5 -14.5 9 -31.5 q0.5 -17 -7.5 -33 Z" /><glyph glyph-name="spin3" unicode="&#xe832;" d="M494 850 q-131 0 -244 -64 q-109 -62 -176 -169 q-69 -110 -74 -239 q0 -8 2.5 -12.5 q2.5 -4.5 6.5 -6.5 l4 -1 l84 0 q19 0 19 18 q5 98 58 181 q51 81 134 128 q87 49 186 49 q79 0 150 -31 q71 -31 123 -87 l-58 -57 q-9 -9 -8 -18.5 q1 -9.5 13 -12.5 l247 -50 q11 -3 21 1.5 q10 4.5 15 15.5 q5 11 1 27 l-58 227 q-2 8 -11 13.5 q-9 5.5 -18 -0.5 l-65 -60 q-68 70 -158 108 q-92 40 -194 40 ZM903 342 q-19 0 -19 -18 q-5 -98 -58 -181 q-51 -81 -134 -128 q-86 -49 -185 -49 q-80 0 -152 32 q-69 30 -122 86 l59 57 q8 9 7 18.5 q-1 9.5 -12 12.5 l-248 50 q-11 3 -21 -1.5 q-10 -4.5 -15 -15.5 q-5 -11 -1 -27 l58 -227 q2 -8 11 -13.5 q9 -5.5 19 0.5 l64 60 q68 -70 158 -108 q93 -40 195 -40 q130 0 243 64 q110 62 176 169 q69 110 74 240 q0 8 -2.5 12 q-2.5 4 -6.5 6 l-4 1 l-84 0 Z" /><glyph glyph-name="menu" unicode="&#xf008;" d="M68 62 q0 -30 21 -51 q21 -21 51 -21 l793 0 q30 0 51 21 q21 21 21 51 q0 30 -21 51 q-21 21 -51 21 l-793 0 q-29 0 -51 -21 q-22 -21 -21 -51 ZM68 350 q0 -30 21 -51 q21 -21 51 -21 l793 0 q30 0 51 21 q21 21 21 51 q0 30 -21 51 q-21 21 -51 21 l-793 0 q-29 0 -51 -21 q-22 -21 -21 -51 ZM68 638 q0 -30 21 -51 q21 -21 51 -21 l793 0 q30 0 51 21 q21 21 21 51 q0 30 -21 51 q-21 21 -51 21 l-793 0 q-29 0 -51 -21 q-22 -21 -21 -51 Z" /><glyph glyph-name="instagram" unicode="&#xf16d;" d="M571 350 q0 59 -41 101 q-41 42 -101 42 q-60 0 -101 -42 q-41 -42 -42 -101 q-1 -59 42 -101 q43 -42 101 -42 q58 0 101 42 q43 42 41 101 ZM648 350 q0 -91 -64 -156 q-64 -65 -155 -64 q-91 1 -156 64 q-65 63 -64 156 q1 93 64 156 q63 63 156 64 q93 1 155 -64 q62 -65 64 -156 ZM709 579 q0 -21 -15 -36 q-15 -15 -37 -15 q-22 0 -36 15 q-14 15 -15 36 q-1 21 15 36 q16 15 36 15 q20 0 37 -15 q17 -15 15 -36 ZM429 702 q-4 0 -43 0 l-59 0 q-20 0 -54 -2 q-34 -2 -57 -5 q-23 -3 -40 -11 q-28 -11 -49 -32 q-21 -21 -33 -49 q-6 -16 -10 -40 q-4 -24 -6 -58 q-2 -34 -1 -53 q1 -19 0 -59 q-1 -40 0 -43 q1 -3 0 -43 q-1 -40 0 -59 q1 -19 1 -53 q0 -34 6 -58 l10 -40 q12 -28 33 -49 q21 -21 49 -32 q16 -6 40 -11 q24 -5 57 -5 q33 0 54 -2 q21 -2 59 0 q38 2 43 0 q5 -2 42 0 q37 2 59 0 q22 -2 54 2 q32 4 58 5 q26 1 39 11 q28 11 50 32 q22 21 32 49 q6 16 10 40 q4 24 6 58 q2 34 1 53 q-1 19 0 59 q1 40 0 43 q-1 3 0 43 q1 40 0 59 q-1 19 -1 53 q0 34 -6 58 l-10 40 q-11 28 -32 49 q-21 21 -50 32 q-16 6 -39 11 q-23 5 -58 5 q-35 0 -54 2 q-19 2 -59 0 q-40 -2 -42 0 ZM857 350 q0 -128 -3 -177 q-5 -116 -69 -180 q-64 -64 -179 -69 q-50 -3 -177 -3 q-127 0 -177 3 q-116 6 -180 69 q-64 63 -69 180 q-3 49 -3 177 q0 128 3 177 q5 116 69 180 q64 64 180 69 q49 3 177 3 q128 0 177 -3 q116 -6 179 -69 q63 -63 69 -180 q3 -49 3 -177 Z" /><glyph glyph-name="uniF16E" unicode="&#xf16e;" d="M146 226 q28 -28 58 -53 q30 -25 65 -45 q115 -62 240.5 -60 q125.5 2 237.5 70 q49 30 89 69.5 q40 39.5 73 86.5 q13 17 23 33.5 q10 16.5 3 36.5 q-11 28 -34 56.5 q-23 28.5 -42 49.5 q-106 111 -246.5 147 q-140.5 36 -285.5 -18 q-67 -28 -122.5 -72.5 q-55.5 -44.5 -99.5 -101.5 q-8 -11 -22.5 -33 q-14.5 -22 -18.5 -34 q-6 -27 12.5 -34.5 q18.5 -7.5 38.5 1.5 q28 45 59.5 85 q31.5 40 74.5 73 q107 80 233.5 84 q126.5 4 239.5 -64 q47 -29 82 -68 q35 -39 66 -84 q-80 -121 -187 -177.5 q-107 -56.5 -254 -35.5 q-57 9 -110 35 q-53 26 -95 64 q-10 10 -19.5 20 q-9.5 10 -19.5 19 q-21 15 -38 -3.5 q-17 -18.5 -1 -46.5 ZM500 505 q-32 0 -60 -12 q-28 -12 -49.5 -33.5 q-21.5 -21.5 -33.5 -49.5 q-12 -28 -12 -60 q0 -32 12 -60.5 q12 -28.5 33.5 -49.5 q21.5 -21 49.5 -33.5 q28 -12.5 60 -12.5 q32 0 60.5 12.5 q28.5 12.5 49.5 33.5 q21 21 33.5 49.5 q12.5 28.5 12.5 60.5 q0 32 -12.5 60 q-12.5 28 -33.5 49.5 q-21 21.5 -49.5 33.5 q-28.5 12 -60.5 12 ZM518 440.5 q11 -1.5 23.5 -7.5 q12.5 -6 25 -19 q12.5 -13 17.5 -22.5 q5 -9.5 8 -28 q3 -18.5 0 -32.5 q-3 -14 -8 -23.5 q-5 -9.5 -18.5 -23 q-13.5 -13.5 -30 -20.5 q-16.5 -7 -29.5 -7 q-13 0 -26.5 3 q-13.5 3 -23 8 q-9.5 5 -19.5 13.5 q-10 8.5 -18 22 q-8 13.5 -10.5 27.5 q-2.5 14 -1 29.5 q1.5 15.5 7.5 28 q6 12.5 16 23.5 q10 11 23.5 19 q13.5 8 20.5 9.5 q7 1.5 19.5 1.5 q12.5 0 23.5 -1.5 Z" /><glyph glyph-name="uniF16F" unicode="&#xf16f;" d="M287 695 q-38 -1 -75.5 -1.5 q-37.5 -0.5 -75.5 -4.5 q-10 -1 -24.5 -14.5 q-14.5 -13.5 -17.5 -21.5 q-5 -28 -6 -56.5 q-1 -28.5 -3 -57.5 l0 -180 q1 -71 9 -110 q8 -39 76 -48 l0 -94 q7 -17 22 -25.5 q15 -8.5 33 3.5 q40 29 79.5 58.5 q39.5 29.5 78.5 59.5 l272 0 q37 10 52.5 25.5 q15.5 15.5 23.5 50.5 l0 340 q-21 72 -65.5 75 q-44.5 3 -126.5 1 l-252 0 ZM856 552 q-6 22 -20 39.5 q-14 17.5 -38 23.5 q-11 3 -22.5 1 q-11.5 -2 -17.5 -14 q-4 -18 16 -24 q20 -6 31 -10 q8 -6 10 -12.5 q2 -6.5 5 -14.5 l0 -336 q-15 -44 -44 -38 q-29 6 -43 -18 l0 -100 l-4 0 l-156 116 l-194 0 q-13 -10 -10.5 -19 q2.5 -9 14.5 -19 l176 0 l163 -122 q21 -2 29.5 3 q8.5 5 19.5 23 l0 96 q36 5 56 19.5 q20 14.5 29 49.5 l0 356 ZM236.5 489 q-6.5 -3 -11 -7.5 q-4.5 -4.5 -8 -12.5 q-3.5 -8 -3.5 -15.5 q0 -7.5 3.5 -15.5 q3.5 -8 9 -13.5 q5.5 -5.5 11 -8 q5.5 -2.5 12 -2.5 q6.5 0 16 3.5 q9.5 3.5 14.5 8 q5 4.5 8.5 12.5 q3.5 8 3.5 15.5 q0 7.5 -3.5 15.5 q-3.5 8 -13 15.5 q-9.5 7.5 -21 7.5 q-11.5 0 -18 -3 ZM390.5 489 q-6.5 -3 -13.5 -12 q-7 -9 -8 -21 q-1 -12 1.5 -18 q2.5 -6 9 -12.5 q6.5 -6.5 12 -9 q5.5 -2.5 16.5 -2 q11 0.5 16.5 3.5 q5.5 3 10 7.5 q4.5 4.5 8 13.5 q3.5 9 3.5 14.5 q0 5.5 -4.5 15.5 q-4.5 10 -12.5 16.5 q-8 6.5 -20 6.5 q-12 0 -18.5 -3 ZM543 487.5 q-8 -4.5 -12.5 -11 q-4.5 -6.5 -6.5 -16.5 q-2 -10 1 -18 q3 -8 8.5 -14.5 q5.5 -6.5 12.5 -10 q7 -3.5 19.5 -2 q12.5 1.5 19 6 q6.5 4.5 11 13 q4.5 8.5 4.5 19 q0 10.5 -2.5 16 q-2.5 5.5 -12.5 14 q-10 8.5 -22 8.5 q-12 0 -20 -4.5 ZM662 653 q12 -5 18.5 -12 q6.5 -7 12.5 -19 l0 -346 q-6 -13 -13 -20 q-7 -7 -20 -13 l-287 0 l-156 -114 l-9 -4 l-1 107 q-4 4 -8 7.5 q-4 3.5 -9 5.5 q-31 4 -43.5 2 q-12.5 -2 -25.5 34 l0 336 q7 19 8.5 21 q1.5 2 18.5 15 l514 0 Z" /></font>
</defs>
</svg>
