<?xml version="1.0" encoding="iso-8859-1"?>
<!-- Generator: Adobe Illustrator 19.0.0, SVG Export Plug-In . SVG Version: 6.00 Build 0)  -->
<svg version="1.1" id="Capa_1" xmlns="http://www.w3.org/2000/svg" xmlns:xlink="http://www.w3.org/1999/xlink" x="0px" y="0px"
	 viewBox="0 0 512 512" style="enable-background:new 0 0 512 512;" xml:space="preserve">
<path style="fill:#ECF0F1;" d="M475.733,503.467H36.267c-15.317,0-27.733-12.416-27.733-27.733v-364.8h494.933v364.8
	C503.467,491.051,491.051,503.467,475.733,503.467z"/>
<path style="fill:#687492;" d="M503.467,110.933H8.533V36.267c0-15.317,12.416-27.733,27.733-27.733h439.467
	c15.317,0,27.733,12.416,27.733,27.733V110.933z"/>
<rect x="42.667" y="42.667" style="fill:#E64C3C;" width="34.133" height="34.133"/>
<rect x="110.933" y="42.667" style="fill:#F0C419;" width="34.133" height="34.133"/>
<rect x="179.2" y="42.667" style="fill:#24AE5F;" width="34.133" height="34.133"/>
<path style="fill:#F29C1F;" d="M452.267,358.4h-85.333c-4.71,0-8.533-3.823-8.533-8.533v-85.333c0-4.71,3.823-8.533,8.533-8.533
	h85.333c4.71,0,8.533,3.823,8.533,8.533v85.333C460.8,354.577,456.977,358.4,452.267,358.4z"/>
<g>
	<path style="fill:#BDC3C7;" d="M324.267,298.667H102.4c-4.71,0-8.533-3.823-8.533-8.533c0-4.71,3.823-8.533,8.533-8.533h221.867
		c4.71,0,8.533,3.823,8.533,8.533C332.8,294.844,328.977,298.667,324.267,298.667z"/>
	<path style="fill:#BDC3C7;" d="M324.267,332.8H59.733c-4.71,0-8.533-3.823-8.533-8.533s3.823-8.533,8.533-8.533h264.533
		c4.71,0,8.533,3.823,8.533,8.533S328.977,332.8,324.267,332.8z"/>
</g>
<path style="fill:#F0C419;" d="M145.067,247.467H59.733c-4.71,0-8.533-3.823-8.533-8.533V153.6c0-4.71,3.823-8.533,8.533-8.533
	h85.333c4.71,0,8.533,3.823,8.533,8.533v85.333C153.6,243.644,149.777,247.467,145.067,247.467z"/>
<g>
	<path style="fill:#BDC3C7;" d="M409.6,187.733H187.733c-4.71,0-8.533-3.823-8.533-8.533s3.823-8.533,8.533-8.533H409.6
		c4.71,0,8.533,3.823,8.533,8.533S414.31,187.733,409.6,187.733z"/>
	<path style="fill:#BDC3C7;" d="M452.267,221.867H187.733c-4.71,0-8.533-3.823-8.533-8.533s3.823-8.533,8.533-8.533h264.533
		c4.71,0,8.533,3.823,8.533,8.533S456.977,221.867,452.267,221.867z"/>
</g>
<path style="fill:#E64C3C;" d="M145.067,469.333H59.733c-4.71,0-8.533-3.823-8.533-8.533v-85.333c0-4.71,3.823-8.533,8.533-8.533
	h85.333c4.71,0,8.533,3.823,8.533,8.533V460.8C153.6,465.51,149.777,469.333,145.067,469.333z"/>
<g>
	<path style="fill:#BDC3C7;" d="M409.6,409.6H187.733c-4.71,0-8.533-3.823-8.533-8.533s3.823-8.533,8.533-8.533H409.6
		c4.71,0,8.533,3.823,8.533,8.533S414.31,409.6,409.6,409.6z"/>
	<path style="fill:#BDC3C7;" d="M452.267,443.733H187.733c-4.71,0-8.533-3.823-8.533-8.533s3.823-8.533,8.533-8.533h264.533
		c4.71,0,8.533,3.823,8.533,8.533S456.977,443.733,452.267,443.733z"/>
</g>
<g>
	<path style="fill:#611C90;" d="M473.6,512H38.4C17.229,512,0,494.771,0,473.6V38.4C0,17.229,17.229,0,38.4,0h435.2
		C494.771,0,512,17.229,512,38.4v435.2C512,494.771,494.771,512,473.6,512z M38.4,17.067c-11.759,0-21.333,9.574-21.333,21.333
		v435.2c0,11.767,9.574,21.333,21.333,21.333h435.2c11.767,0,21.333-9.566,21.333-21.333V38.4c0-11.759-9.566-21.333-21.333-21.333
		H38.4z"/>
	<path style="fill:#611C90;" d="M76.8,85.333H42.667c-4.71,0-8.533-3.823-8.533-8.533V42.667c0-4.71,3.823-8.533,8.533-8.533H76.8
		c4.71,0,8.533,3.823,8.533,8.533V76.8C85.333,81.51,81.51,85.333,76.8,85.333z M51.2,68.267h17.067V51.2H51.2V68.267z"/>
	<path style="fill:#611C90;" d="M145.067,85.333h-34.133c-4.71,0-8.533-3.823-8.533-8.533V42.667c0-4.71,3.823-8.533,8.533-8.533
		h34.133c4.71,0,8.533,3.823,8.533,8.533V76.8C153.6,81.51,149.777,85.333,145.067,85.333z M119.467,68.267h17.067V51.2h-17.067
		V68.267z"/>
	<path style="fill:#611C90;" d="M213.333,85.333H179.2c-4.71,0-8.533-3.823-8.533-8.533V42.667c0-4.71,3.823-8.533,8.533-8.533
		h34.133c4.71,0,8.533,3.823,8.533,8.533V76.8C221.867,81.51,218.044,85.333,213.333,85.333z M187.733,68.267H204.8V51.2h-17.067
		V68.267z"/>
	<path style="fill:#611C90;" d="M503.467,119.467H8.533c-4.71,0-8.533-3.823-8.533-8.533V38.4C0,17.229,17.229,0,38.4,0h435.2
		C494.771,0,512,17.229,512,38.4v72.533C512,115.644,508.186,119.467,503.467,119.467z M17.067,102.4h477.867v-64
		c0-11.759-9.566-21.333-21.333-21.333H38.4c-11.759,0-21.333,9.574-21.333,21.333V102.4z"/>
	<path style="fill:#611C90;" d="M452.267,358.4h-85.333c-4.719,0-8.533-3.814-8.533-8.533v-85.333c0-4.71,3.814-8.533,8.533-8.533
		h85.333c4.719,0,8.533,3.823,8.533,8.533v85.333C460.8,354.586,456.986,358.4,452.267,358.4z M375.467,341.333h68.267v-68.267
		h-68.267V341.333z"/>
	<path style="fill:#611C90;" d="M324.267,298.667H102.4c-4.71,0-8.533-3.814-8.533-8.533c0-4.719,3.823-8.533,8.533-8.533h221.867
		c4.719,0,8.533,3.814,8.533,8.533C332.8,294.852,328.986,298.667,324.267,298.667z"/>
	<path style="fill:#611C90;" d="M324.267,332.8H59.733c-4.71,0-8.533-3.814-8.533-8.533c0-4.719,3.823-8.533,8.533-8.533h264.533
		c4.719,0,8.533,3.814,8.533,8.533C332.8,328.986,328.986,332.8,324.267,332.8z"/>
	<path style="fill:#611C90;" d="M145.067,247.467H59.733c-4.71,0-8.533-3.823-8.533-8.533V153.6c0-4.71,3.823-8.533,8.533-8.533
		h85.333c4.71,0,8.533,3.823,8.533,8.533v85.333C153.6,243.644,149.777,247.467,145.067,247.467z M68.267,230.4h68.267v-68.267
		H68.267V230.4z"/>
	<path style="fill:#611C90;" d="M409.6,187.733H187.733c-4.71,0-8.533-3.823-8.533-8.533s3.823-8.533,8.533-8.533H409.6
		c4.719,0,8.533,3.823,8.533,8.533S414.319,187.733,409.6,187.733z"/>
	<path style="fill:#611C90;" d="M452.267,221.867H187.733c-4.71,0-8.533-3.823-8.533-8.533s3.823-8.533,8.533-8.533h264.533
		c4.719,0,8.533,3.823,8.533,8.533S456.986,221.867,452.267,221.867z"/>
	<path style="fill:#611C90;" d="M145.067,469.333H59.733c-4.71,0-8.533-3.814-8.533-8.533v-85.333c0-4.719,3.823-8.533,8.533-8.533
		h85.333c4.71,0,8.533,3.814,8.533,8.533V460.8C153.6,465.519,149.777,469.333,145.067,469.333z M68.267,452.267h68.267V384H68.267
		V452.267z"/>
	<path style="fill:#611C90;" d="M409.6,409.6H187.733c-4.71,0-8.533-3.814-8.533-8.533c0-4.719,3.823-8.533,8.533-8.533H409.6
		c4.719,0,8.533,3.814,8.533,8.533C418.133,405.786,414.319,409.6,409.6,409.6z"/>
	<path style="fill:#611C90;" d="M452.267,443.733H187.733c-4.71,0-8.533-3.814-8.533-8.533c0-4.719,3.823-8.533,8.533-8.533h264.533
		c4.719,0,8.533,3.814,8.533,8.533C460.8,439.919,456.986,443.733,452.267,443.733z"/>
</g>
<g>
</g>
<g>
</g>
<g>
</g>
<g>
</g>
<g>
</g>
<g>
</g>
<g>
</g>
<g>
</g>
<g>
</g>
<g>
</g>
<g>
</g>
<g>
</g>
<g>
</g>
<g>
</g>
<g>
</g>
</svg>
