<?xml version="1.0" encoding="utf-8"?>
<!-- Generator: Adobe Illustrator 22.0.1, SVG Export Plug-In . SVG Version: 6.00 Build 0)  -->
<svg version="1.0" id="Capa_1" xmlns="http://www.w3.org/2000/svg" xmlns:xlink="http://www.w3.org/1999/xlink" x="0px" y="0px"
	 viewBox="0 0 120 70" style="enable-background:new 0 0 120 70;" xml:space="preserve">
<style type="text/css">
	.st0{fill:#DEE2FF;}
</style>
<path class="st0" d="M40.3,41.4c0,0.9-0.1,1.7-0.3,2.6c-0.1,0.3-0.2,0.7-0.3,1c-0.2,0.7-0.8,1.2-1.5,1.5c-0.8,0.3-1.6,0.4-2.3,0.4
	c-0.8,0-1.4-0.2-2-0.5s-1.1-0.8-1.5-1.4h-0.2c-0.4,0.6-0.8,1-1.4,1.3s-1.2,0.5-1.9,0.5l0,0c-0.1,1.1-0.2,2-0.5,2.9
	c-0.1,0.4-0.3,0.8-0.5,1.2c-0.3,0.6-0.9,1.1-1.6,1.3c-2,0.5-3.7,0.8-5.3,0.8c-2.3,0-4.1-0.5-5.3-1.5S14,49.1,14,47.3
	c0-1.5,0.3-3.2,1-5.1c0.3-0.8,1.2-1.3,2.1-1l0.6,0.2c0.8,0.2,1.2,1,1,1.8c-0.3,1-0.5,1.9-0.5,2.6c0,0.9,0.2,1.5,0.7,2
	c0.5,0.4,1.2,0.6,2.2,0.6c0.8,0,1.8-0.2,3.2-0.5c0.3-0.1,0.6-0.4,0.5-0.7c-0.1-0.9-0.3-1.9-0.5-2.9c-0.1-0.6-0.3-1.1-0.4-1.6
	c-0.2-0.8,0.2-1.6,0.9-1.9l2.3-1l0.2,0.1c0.1,0.8,0.3,1.4,0.7,1.8c0.4,0.4,0.8,0.6,1.2,0.6c0.5,0,1-0.3,1.5-0.8
	c0.4-0.4,0.7-0.9,0.9-1.5c0.1-0.3,0.4-0.5,0.7-0.5l0.9,0.1c0.3,0.1,0.6,0.3,0.6,0.7l0,0c0,1.3,0.5,2,1.6,2c0.2,0,0.4,0,0.6-0.1
	c0.4-0.1,0.7-0.5,0.5-0.8c-0.1-0.4-0.2-0.8-0.4-1.2c0-0.2-0.1-0.3-0.1-0.5c-0.1-0.4,0.1-0.8,0.5-0.9l2.7-0.6
	c0.4-0.1,0.7,0.1,0.8,0.5C40.2,39.6,40.3,40.4,40.3,41.4z"/>
<path class="st0" d="M99.1,43.9c-0.1,0.6-0.3,1.2-0.6,1.7c-0.1,0.2-0.3,0.4-0.6,0.5c-0.6,0.2-1.4,0.3-2.4,0.4
	c-1.2,0.1-2.4,0.2-3.8,0.2H87h-4.7l0,0h-4.7H73l0,0h-4.7h-4.7l0,0h-4.7h-4.7l0,0c-0.9,0-1.7-0.2-2.4-0.7c-0.2-0.1-0.3-0.1-0.5,0
	c-0.6,0.3-1.3,0.5-2.1,0.6c-1,0.1-2.6,0.1-4.9,0.1c-0.2,0-0.3-0.1-0.4-0.2c-0.2-0.4-0.5-0.9-0.7-1.7s-0.4-1.5-0.5-2.2
	c0-0.3,0.2-0.5,0.5-0.5h0.3c0.3,0,0.5-0.3,0.5-0.6c-0.2-0.9-0.4-1.9-0.8-2.9c-0.4-1.1-0.8-2.4-1.4-3.9c-0.1-0.2,0-0.5,0.2-0.6l3-1.4
	c0.3-0.1,0.6,0,0.7,0.3c0.4,1.2,0.7,2.4,1,3.5c0.3,1.3,0.5,2.4,0.6,3.3c0,0.1,0,0.3-0.1,0.4c-0.3,0.3-0.6,0.7-1,1
	C45.8,41.4,46,42,46.4,42c1.1,0,2,0,2.6-0.1c0.3,0,0.5-0.2,0.5-0.5c0-0.9-0.1-1.9-0.2-3.1c-0.1-1.4-0.3-2.8-0.4-4.1l-0.1-0.9
	c0-0.3,0.2-0.5,0.5-0.5l3-0.2c0.3,0,0.5,0.2,0.5,0.5c0.2,3.4,0.3,6.3,0.3,8.5l0,0c0,0.3,0.2,0.5,0.5,0.5h0.5l0,0h4.7h4.7l0,0h4.7H73
	l0,0h4.7h4.7l0,0h4.7h4.7c1.2,0,2.1,0,2.9-0.1c0.6-0.1,1-0.6,0.8-1.2c-0.1-0.2-0.1-0.4-0.2-0.7c-0.2-0.5,0.1-1.1,0.7-1.2l2.1-0.5
	c0.5-0.1,1,0.2,1.1,0.7c0.2,0.7,0.2,1.5,0.2,2.3C99.4,42.3,99.3,43.1,99.1,43.9z"/>
<path class="st0" d="M94.9,51.3c-0.4,0.6-0.7,0.9-1,1.1c-0.3-0.1-0.7-0.4-1.2-0.7s-0.9-0.6-1.1-0.9c0.1-0.3,0.3-0.7,0.6-1.3
	c0.4-0.5,0.7-0.8,1-0.9c0.2,0,0.4,0.1,0.8,0.3c0.3,0.2,0.6,0.4,0.9,0.7s0.4,0.5,0.5,0.6C95.5,50.4,95.3,50.8,94.9,51.3z M89.9,52.4
	c-0.3-0.1-0.7-0.4-1.2-0.7s-0.9-0.6-1.1-0.9c0.1-0.3,0.3-0.7,0.6-1.3c0.4-0.5,0.7-0.8,1-0.9c0.2,0,0.4,0.1,0.8,0.3
	c0.3,0.2,0.6,0.4,0.9,0.7s0.4,0.5,0.5,0.6c0,0.2-0.1,0.6-0.5,1.2C90.5,51.9,90.2,52.2,89.9,52.4z M85.9,52.4
	c-0.3-0.1-0.7-0.4-1.2-0.7s-0.9-0.6-1.1-0.9c0.1-0.3,0.3-0.7,0.6-1.3c0.4-0.5,0.7-0.8,1-0.9c0.2,0,0.4,0.1,0.8,0.3
	c0.3,0.2,0.6,0.4,0.9,0.7s0.4,0.5,0.5,0.6c0,0.2-0.1,0.6-0.5,1.2C86.5,51.9,86.2,52.2,85.9,52.4z"/>
<path class="st0" d="M94.3,10.2H72.1c-7.6,0-13.7,6.1-13.7,13.7v15.3c0,0.5,0.4,1,1,1h2.5c0.5,0,0.9-0.4,0.9-0.9V23.9
	c0-5.1,4.2-9.3,9.3-9.3h22.3c5.1,0,9.3,4.2,9.3,9.3v22.2l0,0c0,5.1-4.2,9.3-9.3,9.3H72.1c-3.9,0-7.3-2.5-8.7-5.9
	c-0.2-0.4-0.6-0.7-1-0.7c-0.8,0-2.1,0-2.9,0c-0.5,0-0.8,0.5-0.7,0.9c1.5,5.9,6.9,10.1,13.3,10.1h22.3c7.6,0,13.7-6.1,13.7-13.7V23.9
	C108,16.4,101.9,10.2,94.3,10.2z"/>
<path class="st0" d="M96.5,18.5c-0.8,0-1.7,0.3-2.3,0.9c-0.6,0.6-0.9,1.4-0.9,2.3c0,0.8,0.3,1.7,0.9,2.3c0.6,0.6,1.4,0.9,2.3,0.9
	s1.7-0.3,2.3-0.9c0.6-0.6,0.9-1.4,0.9-2.3s-0.3-1.7-0.9-2.3C98.2,18.8,97.4,18.5,96.5,18.5z"/>
</svg>
