<?xml version="1.0" encoding="utf-8"?>
<!-- Generator: Adobe Illustrator 22.0.1, SVG Export Plug-In . SVG Version: 6.00 Build 0)  -->
<svg version="1.0" id="text" xmlns="http://www.w3.org/2000/svg" xmlns:xlink="http://www.w3.org/1999/xlink" x="0px" y="0px"
	 viewBox="0 0 126.6 19.9" style="enable-background:new 0 0 126.6 19.9;" xml:space="preserve">
<style type="text/css">
	.st0{fill:#22A4E4;}
</style>
<path id="layers" class="st0" d="M125.1,14.7c-0.4,1.1-0.9,2.1-1.4,3.1c-0.5,0.9-0.8,1.5-1,1.9c-0.7-0.3-1.4-0.6-2-1.1
	c-0.6-0.4-1.2-0.8-1.7-1.4c0.9-1.3,1.6-2.7,2.2-4.1c0.8-1.6,1.4-3.2,1.9-4.9l3.4,1.1C126.3,11.3,125.8,13,125.1,14.7z M118.1,13.5
	c-0.7,0.1-1.4,0.2-2.2,0.2l-0.2-0.1c0.1-1.3,0.1-2.6,0.1-4c0-2.6-0.1-5.7-0.3-9.3l3.9-0.2c0.2,3.1,0.3,6,0.3,8.7
	c0,1.8,0,3.2-0.1,4.2C119.2,13.2,118.7,13.4,118.1,13.5L118.1,13.5z M113.3,12.8c-0.5,0.3-1,0.5-1.6,0.6c-0.8,0.2-1.6,0.3-2.4,0.3
	c-1,0.1-2-0.3-2.7-0.9c-0.6-0.6-0.9-1.5-0.9-2.4c0-0.7,0.1-1.3,0.4-2c0.3-0.7,0.6-1.4,1.1-2c0-0.5-0.1-0.9-0.1-1.2
	c0-0.6,0-1.3,0.1-1.9l0.1-0.1c1.6,0,3.2,0.5,4.4,1.4c0.7,0.5,1.3,1.2,1.7,2c0.4,0.8,0.7,1.7,0.6,2.7c0,0.6-0.1,1.3-0.2,1.9
	C113.8,11.7,113.6,12.3,113.3,12.8z M111.1,8.7c-0.5-0.2-1-0.3-1.5-0.4c-0.4-0.1-0.8-0.1-1.2-0.2c-0.1,0.2-0.2,0.4-0.2,0.6
	c0,0.4,0.3,0.6,0.8,0.6c0.2,0,0.5,0,0.7,0c0.7,0,1.4-0.1,2.1-0.2C111.7,8.9,111.4,8.7,111.1,8.7z M95.6,13.6c-1.3,0-2.5-0.3-3.7-0.8
	c-1.4,0.5-2.8,0.7-4.3,0.7l0,0c-0.9,0-1.7-0.1-2.6-0.2c-0.7-0.1-1.4-0.3-2.1-0.5c-0.3-2.6-0.4-5.2-0.4-7.8l-0.1-4.9L86.3,0
	c0.2,2.4,0.2,4.6,0.2,6.6c0,0.6,0,1.4-0.1,2.5c0.4,0.1,0.7,0.1,1.1,0.1l1.8,0c0.2-0.8,0.6-1.6,1.2-2.2c-0.1-0.5-0.2-1.1-0.2-1.6
	c0-0.7,0.1-1.5,0.3-2.2l0.2-0.2c1,0.1,2,0.2,3,0.5c1.3,0.3,2.5,0.7,3.7,1.2c2.1,0.9,3.2,2.1,3.2,3.9c-0.1,1.6-0.8,3.2-1.8,4.4
	C97.8,13.4,96.7,13.6,95.6,13.6z M93.7,7.5c-0.3-0.2-0.6-0.3-0.9-0.3c-0.1,0-0.3,0-0.4,0.1c-0.1,0.1-0.3,0.2-0.4,0.3
	C92,7.7,91.9,7.9,91.9,8c0,0.2,0.1,0.4,0.2,0.5c0.1,0.2,0.4,0.3,0.6,0.3c0.1,0,0.2,0,0.3,0c0.3,0,0.6-0.1,0.8-0.2
	c0.2-0.1,0.4-0.3,0.4-0.5C94.2,7.9,94,7.7,93.7,7.5z M97.8,8.5c-0.5-0.2-1-0.4-1.5-0.5c-0.1,0.5-0.2,0.9-0.4,1.4
	c0.4,0.1,0.9,0.2,1.3,0.2c0.6,0,1.1-0.2,1.5-0.5C98.5,8.8,98.2,8.7,97.8,8.5L97.8,8.5z M76.9,7.9C79,8.8,80,9.8,80,10.6
	c0,1.2-0.4,2.5-1.2,3.5c-0.8,1.1-1.9,2-3.2,2.6c-1.4,0.7-2.9,1-4.4,1c-1.5,0.1-3-0.4-4.1-1.5c-0.9-1.2-1.4-2.6-1.3-4.1
	c0.1-2.2,0.6-4.4,1.5-6.4l3.3,1c-0.5,1.2-0.8,2.6-0.9,3.9c0,0.7,0.2,1.4,0.6,2c0.5,0.5,1.1,0.8,1.8,0.7c0.6,0,1.3-0.2,1.9-0.4
	c0.7-0.3,1.4-0.6,2-1.1c-0.8-0.4-1.6-0.8-2.4-1.4c-0.3-0.2-0.6-0.6-0.6-1c0.1-1,0.4-2,1-2.8c0.8-1.1,1.7-2,2.8-2.7
	c1.2-0.8,2.5-1.3,3.9-1.5C81,3.2,81,4,81,4.8c0,0.6,0,1.1-0.1,1.7C79.5,6.7,78.2,7.2,76.9,7.9L76.9,7.9z M58.9,13.4
	c-0.7,0.1-1.5,0.2-2.2,0.2l-0.1-0.1c0.1-1.3,0.1-2.6,0.1-4c0-2.6-0.1-5.7-0.3-9.3L60.3,0c0.2,3.1,0.3,6,0.3,8.7c0,1.8,0,3.2-0.1,4.2
	C60,13.2,59.5,13.4,58.9,13.4L58.9,13.4z M52.2,17.8c-0.5,0.9-0.8,1.5-1,1.9c-0.7-0.3-1.4-0.6-2-1.1c-0.6-0.4-1.2-0.8-1.7-1.4
	c0.9-1.3,1.6-2.7,2.3-4.1c0.8-1.6,1.4-3.2,1.9-4.9l3.4,1.1C54.5,12.4,53.6,15.2,52.2,17.8z M47.4,4.1C47,4,46.6,3.7,46.3,3.5
	c-0.4-0.2-0.7-0.5-1-0.9c-0.2,0.3-0.4,0.6-0.6,0.9C44.4,3.8,44.2,4,44,4.1c-0.4-0.2-0.8-0.5-1.2-0.7c-0.4-0.3-0.7-0.5-1.1-0.9
	c0.2-0.5,0.4-0.9,0.7-1.3c0.2-0.4,0.5-0.7,1-0.8c0.4,0.1,0.8,0.3,1.2,0.5c0.4,0.2,0.7,0.5,0.9,0.9c0.2-0.4,0.4-0.7,0.7-1
	c0.1-0.2,0.4-0.4,0.7-0.4c0.4,0.1,0.9,0.3,1.2,0.6c0.4,0.2,0.7,0.5,0.9,0.9c0,0.4-0.2,0.8-0.5,1.2C48.1,3.5,47.8,3.8,47.4,4.1
	L47.4,4.1z M45.4,8.8c-0.1-0.5-0.3-1.1-0.5-1.6s-0.3-0.9-0.3-1l3.8-0.9c0.3,1,0.5,2.1,0.5,3.1c0,0.8-0.1,1.6-0.3,2.5
	c-0.1,0.7-0.4,1.3-0.8,1.9c-0.9,0.2-1.8,0.4-2.7,0.5c-1.2,0.1-2.4,0.2-3.6,0.2l0,0c-0.7,0-1.3-0.1-1.9-0.4c-0.6-0.3-1.1-0.7-1.5-1.3
	H38c-0.3,0.6-0.9,1.1-1.5,1.3c-0.8,0.3-1.7,0.4-2.5,0.4l0,0c-0.9,0-1.7-0.1-2.6-0.2c-0.7-0.1-1.4-0.3-2.1-0.5
	C29.1,10.3,29,7.7,29,5.1l-0.2-4.9L32.8,0C32.9,2.4,33,4.6,33,6.6c0,0.6,0,1.4,0,2.5c0.4,0.1,0.7,0.1,1.1,0.1c0.8,0,1.6-0.1,2.3-0.5
	c0.7-0.5,1.1-1.2,1.2-2l2,0.3c0,0.2,0,0.4,0,0.6c-0.1,0.5,0.1,1,0.4,1.3c0.5,0.3,1,0.4,1.6,0.3C42.9,9.2,44.2,9.1,45.4,8.8L45.4,8.8
	z M26.3,12.6c-1.3,0.4-2.6,0.7-3.9,0.8c-1.4,0.1-3,0.2-4.7,0.2h-2c-0.5,0-1-0.1-1.5-0.2l-0.1,0c0,1,0,2.1-0.2,3.1
	c-1.2,1-2.6,1.8-4,2.5c-1.4,0.6-2.8,0.9-4.3,0.9c-1.5,0.1-2.9-0.4-4.1-1.4C0.5,17.5-0.1,16,0,14.4c0-1,0.1-2,0.4-3
	C0.7,10.2,1.1,9,1.5,7.9L4.8,9c-0.5,1.3-0.9,2.8-0.9,4.2c0,0.7,0.2,1.3,0.6,1.8c0.5,0.4,1.1,0.6,1.7,0.6c1.7-0.2,3.3-0.7,4.8-1.6
	c-0.5-0.4-1-0.8-1.6-1.2c-0.7-0.5-1.4-0.8-2-1.2l1.2-3.2c1.1,0.2,2.2,0.4,3.4,0.5c1.3,0.1,2.6,0.2,3.9,0.2h0.8
	c0.2-0.6,0.4-1.3,0.4-2C17,6.3,17,5.2,17,3.9c0-0.5,0-1.5-0.1-3.1V0.2L20.8,0c0,1.7-0.1,3.3-0.3,5c0.6-0.5,1.2-0.8,2-0.9
	c0.2,0,0.4,0,0.6,0c1.2,0,2.4,0.5,3.1,1.4c0.9,1.1,1.3,2.5,1.2,3.9c0,0.5-0.1,1.1-0.3,1.6C26.9,11.5,26.7,12.1,26.3,12.6L26.3,12.6z
	 M24.1,8.4c-0.4-0.2-0.8-0.2-1.2-0.2c-0.7,0-1.3,0.1-2,0.3c-0.7,0.2-1.4,0.5-2,0.9c0.6,0,1.3,0.1,2.1,0.1c0.8,0,1.7,0,2.5-0.1
	c0.4,0,0.9-0.1,1.2-0.4C24.6,8.7,24.4,8.5,24.1,8.4L24.1,8.4z M36.2,15.8c0.2-0.2,0.4-0.4,0.7-0.5c0.3,0,0.6,0.1,0.8,0.2
	c0.4,0.2,0.7,0.4,1,0.7c0.2,0.2,0.4,0.4,0.5,0.7c0,0.5-0.2,0.9-0.5,1.3c-0.3,0.5-0.7,0.9-1.1,1.2c-0.5-0.2-0.9-0.5-1.3-0.8
	c-0.4-0.3-0.8-0.6-1.1-1c0.1-0.3,0.2-0.6,0.4-0.9C35.7,16.4,35.9,16.1,36.2,15.8L36.2,15.8z"/>
</svg>
